<svg width="256" height="256" viewBox="0 0 256 256" fill="none" xmlns="http://www.w3.org/2000/svg">
<path d="M182.23 77.4422C184.309 77.4422 186 75.7511 186 73.6723V69.5052C186 67.4263 184.309 65.7352 182.23 65.7352H73.2987C71.2199 65.7352 69.5288 67.4263 69.5288 69.5052V73.6723C69.5288 75.7511 71.2199 77.4422 73.2987 77.4422H73.558V88.0873C73.558 89.0947 74.3745 89.9115 75.3822 89.9115C76.3898 89.9115 77.2063 89.0947 77.2063 88.0873V77.4422H178.322V150.352H77.2066V95.384C77.2066 94.3765 76.3901 93.5598 75.3824 93.5598C74.3748 93.5598 73.5583 94.3765 73.5583 95.384V150.352H73.299C71.2202 150.352 69.5291 152.043 69.5291 154.122V158.289C69.5291 160.368 71.2202 162.059 73.299 162.059H85.0644L78.393 185.37C78.0586 186.539 78.2865 187.766 79.0186 188.737C79.7507 189.708 80.8678 190.265 82.0839 190.265H89.9808C91.6853 190.265 93.203 189.12 93.6717 187.482L95.1816 182.206H119.896V186.426C119.896 188.543 121.618 190.265 123.735 190.265H131.794C133.91 190.265 135.632 188.543 135.632 186.426V182.206H160.347L161.857 187.482C162.325 189.12 163.843 190.265 165.548 190.265H173.445C174.661 190.265 175.778 189.708 176.51 188.737C177.242 187.766 177.47 186.539 177.135 185.37L170.464 162.059H182.229C184.308 162.059 185.999 160.368 185.999 158.289V154.122C185.999 152.043 184.308 150.352 182.229 150.352H181.97V77.4422H182.23ZM89.9808 186.616H82.0842C82.0606 186.616 81.9891 186.616 81.9319 186.541C81.875 186.465 81.8944 186.396 81.901 186.373L88.846 162.106H97.1396L90.1642 186.479C90.1409 186.56 90.0655 186.616 89.9808 186.616V186.616ZM131.984 186.426C131.984 186.531 131.899 186.616 131.794 186.616H123.735C123.63 186.616 123.545 186.531 123.545 186.426V182.206H131.984V186.426ZM96.2258 178.558L97.4881 174.147H158.041L159.303 178.558H96.2258ZM131.984 162.106V170.499H123.544V162.106H131.984ZM173.597 186.541C173.54 186.616 173.468 186.616 173.445 186.616H165.548C165.463 186.616 165.388 186.56 165.365 186.478L158.389 162.106H166.683L173.628 186.373C173.635 186.396 173.654 186.465 173.597 186.541V186.541ZM156.997 170.499H135.633V162.059H154.581L156.997 170.499ZM182.352 154.122V158.289C182.352 158.356 182.297 158.411 182.23 158.411H111.785C110.777 158.411 109.961 159.227 109.961 160.235C109.961 161.242 110.777 162.059 111.785 162.059H119.896V170.499H98.5323L100.948 162.059H104.488C105.496 162.059 106.312 161.242 106.312 160.235C106.312 159.227 105.496 158.411 104.488 158.411H73.2987C73.2319 158.411 73.1771 158.356 73.1771 158.289V154.122C73.1771 154.055 73.2319 154 73.2987 154H182.23C182.297 154 182.352 154.055 182.352 154.122V154.122ZM73.2987 73.7939C73.2319 73.7939 73.1771 73.7394 73.1771 73.6723V69.5052C73.1771 69.438 73.2319 69.3836 73.2987 69.3836H182.23C182.297 69.3836 182.351 69.438 182.351 69.5052V73.6723C182.351 73.7394 182.297 73.7939 182.23 73.7939H73.2987Z" fill="url(#paint0_linear)" fill-opacity="0.8"/>
<path d="M93.7056 140.088C93.7056 143.316 96.3314 145.941 99.5589 145.941C102.786 145.941 105.413 143.316 105.413 140.088C105.413 136.861 102.787 134.234 99.5592 134.234C96.3316 134.234 93.7056 136.861 93.7056 140.088V140.088ZM99.5589 137.883C100.775 137.883 101.764 138.872 101.764 140.088C101.764 141.304 100.775 142.293 99.5589 142.293C98.3431 142.293 97.3539 141.304 97.3539 140.088C97.3539 138.872 98.3431 137.883 99.5589 137.883Z" fill="url(#paint1_linear)" fill-opacity="0.8"/>
<path d="M155.97 93.7023C159.198 93.7023 161.824 91.0765 161.824 87.8487C161.824 84.6212 159.198 81.9953 155.97 81.9953C152.743 81.9953 150.117 84.6209 150.117 87.8487C150.117 91.0765 152.743 93.7023 155.97 93.7023V93.7023ZM155.97 85.6437C157.186 85.6437 158.175 86.6328 158.175 87.8487C158.175 89.0648 157.186 90.054 155.97 90.054C154.754 90.054 153.765 89.0648 153.765 87.8487C153.765 86.6328 154.754 85.6437 155.97 85.6437Z" fill="url(#paint2_linear)" fill-opacity="0.8"/>
<path d="M97.7349 128C97.7349 129.007 98.5514 129.824 99.559 129.824C100.567 129.824 101.383 129.007 101.383 128V123.971C101.383 122.963 100.567 122.146 99.559 122.146C98.5514 122.146 97.7349 122.963 97.7349 123.971V128Z" fill="url(#paint3_linear)" fill-opacity="0.8"/>
<path d="M99.559 117.736C100.567 117.736 101.383 116.919 101.383 115.912V111.883C101.383 110.875 100.567 110.058 99.559 110.058C98.5514 110.058 97.7349 110.875 97.7349 111.883V115.912C97.7349 116.919 98.5516 117.736 99.559 117.736Z" fill="url(#paint4_linear)" fill-opacity="0.8"/>
<path d="M94.2393 105.114C94.5956 105.47 95.0626 105.648 95.5294 105.648C95.9961 105.648 96.4631 105.47 96.8194 105.114L99.5588 102.374L102.298 105.114C102.655 105.47 103.121 105.648 103.588 105.648C104.055 105.648 104.522 105.47 104.878 105.114C105.591 104.401 105.591 103.246 104.878 102.534L102.139 99.7945L104.878 97.0551C105.591 96.3427 105.591 95.1877 104.878 94.4755C104.166 93.7631 103.011 93.7631 102.298 94.4755L99.5591 97.2149L96.8197 94.4755C96.1073 93.7631 94.9524 93.7629 94.2398 94.4755C93.5274 95.1879 93.5274 96.343 94.2398 97.0551L96.9792 99.7945L94.2398 102.534C93.5269 103.246 93.5269 104.401 94.2393 105.114Z" fill="url(#paint5_linear)" fill-opacity="0.8"/>
<path d="M129.055 120.666C128.342 119.954 127.187 119.954 126.475 120.666L123.735 123.406L120.996 120.666C120.284 119.954 119.129 119.953 118.416 120.666C117.704 121.378 117.704 122.534 118.416 123.246L121.156 125.985L118.416 128.725C117.704 129.437 117.704 130.592 118.416 131.304C118.772 131.66 119.239 131.839 119.706 131.839C120.173 131.839 120.64 131.661 120.996 131.304L123.736 128.565L126.475 131.304C126.831 131.661 127.298 131.839 127.765 131.839C128.232 131.839 128.699 131.661 129.055 131.304C129.768 130.592 129.768 129.437 129.055 128.725L126.316 125.985L129.055 123.246C129.767 122.533 129.767 121.378 129.055 120.666V120.666Z" fill="url(#paint6_linear)" fill-opacity="0.8"/>
<path d="M161.289 120.666C160.576 119.954 159.422 119.954 158.709 120.666L155.97 123.406L153.23 120.666C152.518 119.954 151.363 119.953 150.651 120.666C149.938 121.378 149.938 122.534 150.651 123.246L153.39 125.985L150.651 128.725C149.938 129.437 149.938 130.592 150.651 131.304C151.007 131.66 151.474 131.839 151.941 131.839C152.407 131.839 152.874 131.661 153.231 131.304L155.97 128.565L158.709 131.304C159.066 131.661 159.532 131.839 159.999 131.839C160.466 131.839 160.933 131.661 161.29 131.304C162.002 130.592 162.002 129.437 161.29 128.725L158.55 125.985L161.29 123.246C162.001 122.533 162.001 121.378 161.289 120.666V120.666Z" fill="url(#paint7_linear)" fill-opacity="0.8"/>
<path d="M107.617 110.058C106.609 110.058 105.793 110.875 105.793 111.882C105.793 112.89 106.609 113.707 107.617 113.707H155.97C156.977 113.707 157.794 112.89 157.794 111.882V104.102L158.709 105.017C159.065 105.373 159.532 105.552 159.999 105.552C160.466 105.552 160.933 105.374 161.289 105.017C162.002 104.305 162.002 103.15 161.289 102.438L157.26 98.4084C156.547 97.696 155.392 97.696 154.68 98.4084L150.65 102.437C149.938 103.15 149.938 104.305 150.65 105.017C151.363 105.729 152.518 105.729 153.23 105.017L154.145 104.102V110.058H107.617V110.058Z" fill="url(#paint8_linear)" fill-opacity="0.8"/>
<circle cx="128" cy="128" r="125" stroke="url(#paint9_linear)" stroke-opacity="0.8" stroke-width="6"/>
<defs>
<linearGradient id="paint0_linear" x1="127.764" y1="65.7352" x2="127.764" y2="190.265" gradientUnits="userSpaceOnUse">
<stop offset="0.00520833" stop-color="#EB5757"/>
<stop offset="1" stop-color="#D54F8B"/>
</linearGradient>
<linearGradient id="paint1_linear" x1="99.5591" y1="134.234" x2="99.5591" y2="145.941" gradientUnits="userSpaceOnUse">
<stop offset="0.00520833" stop-color="#EB5757"/>
<stop offset="1" stop-color="#D54F8B"/>
</linearGradient>
<linearGradient id="paint2_linear" x1="155.97" y1="81.9953" x2="155.97" y2="93.7023" gradientUnits="userSpaceOnUse">
<stop offset="0.00520833" stop-color="#EB5757"/>
<stop offset="1" stop-color="#D54F8B"/>
</linearGradient>
<linearGradient id="paint3_linear" x1="99.559" y1="122.146" x2="99.559" y2="129.824" gradientUnits="userSpaceOnUse">
<stop offset="0.00520833" stop-color="#EB5757"/>
<stop offset="1" stop-color="#D54F8B"/>
</linearGradient>
<linearGradient id="paint4_linear" x1="99.559" y1="110.058" x2="99.559" y2="117.736" gradientUnits="userSpaceOnUse">
<stop offset="0.00520833" stop-color="#EB5757"/>
<stop offset="1" stop-color="#D54F8B"/>
</linearGradient>
<linearGradient id="paint5_linear" x1="99.5588" y1="93.9411" x2="99.5588" y2="105.648" gradientUnits="userSpaceOnUse">
<stop offset="0.00520833" stop-color="#EB5757"/>
<stop offset="1" stop-color="#D54F8B"/>
</linearGradient>
<linearGradient id="paint6_linear" x1="123.736" y1="120.132" x2="123.736" y2="131.839" gradientUnits="userSpaceOnUse">
<stop offset="0.00520833" stop-color="#EB5757"/>
<stop offset="1" stop-color="#D54F8B"/>
</linearGradient>
<linearGradient id="paint7_linear" x1="155.97" y1="120.132" x2="155.97" y2="131.839" gradientUnits="userSpaceOnUse">
<stop offset="0.00520833" stop-color="#EB5757"/>
<stop offset="1" stop-color="#D54F8B"/>
</linearGradient>
<linearGradient id="paint8_linear" x1="133.808" y1="97.8741" x2="133.808" y2="113.707" gradientUnits="userSpaceOnUse">
<stop offset="0.00520833" stop-color="#EB5757"/>
<stop offset="1" stop-color="#D54F8B"/>
</linearGradient>
<linearGradient id="paint9_linear" x1="50.6802" y1="24.0406" x2="128" y2="256" gradientUnits="userSpaceOnUse">
<stop stop-color="#F4B33E"/>
<stop offset="1" stop-color="#DF5488"/>
</linearGradient>
</defs>
</svg>
