<svg width="256" height="256" viewBox="0 0 256 256" fill="none" xmlns="http://www.w3.org/2000/svg">
<path fill-rule="evenodd" clip-rule="evenodd" d="M181.514 115.372H96.7115L178.165 91.7759C178.798 91.5924 179.332 91.1642 179.651 90.5875C179.969 90.0097 180.045 89.3301 179.862 88.697L175.599 73.9823C173.896 68.1052 168.424 64 162.291 64C160.999 64 159.711 64.1835 158.463 64.5447L81.9862 86.6988C78.449 87.7232 75.5177 90.0748 73.7302 93.3187C71.9436 96.5627 71.5242 100.298 72.5485 103.834L76.7129 118.21V177.431C76.7129 185.059 82.9183 191.264 90.5451 191.264H120.413C121.786 191.264 122.899 190.151 122.899 188.778C122.899 187.406 121.786 186.293 120.413 186.293H90.546C85.6592 186.293 81.6842 182.318 81.6842 177.431V143.605H94.4182H94.424H94.4288H113.894H113.9H113.906H133.372H133.377H133.383H152.849H152.855H152.86H179.028V177.431C179.028 182.318 175.053 186.293 170.167 186.293H140.298C138.926 186.293 137.813 187.406 137.813 188.778C137.813 190.151 138.926 191.264 140.298 191.264H170.167C177.794 191.264 184 185.059 184 177.431V117.857C184 116.485 182.887 115.372 181.514 115.372V115.372ZM137.685 138.634L148.246 120.343H161.982L151.422 138.634H137.685ZM118.207 138.634L128.768 120.343H142.504L131.944 138.634H118.207ZM98.7311 138.634L109.291 120.343H123.028L112.467 138.634H98.7311ZM107.973 106.456L90.2878 89.4699L103.538 85.6317C103.631 85.7677 103.74 85.8958 103.865 86.0153L121.549 103.001L108.299 106.839C108.206 106.703 108.096 106.574 107.973 106.456ZM141.28 75.1766L158.965 92.1623L145.714 96.0005C145.621 95.8646 145.512 95.7354 145.388 95.617L127.703 78.6312L140.954 74.7931C141.047 74.929 141.156 75.0572 141.28 75.1766ZM122.572 80.5964L140.257 97.5812L127.006 101.42C126.913 101.284 126.804 101.155 126.68 101.037L108.995 84.051L122.246 80.2129C122.34 80.3478 122.448 80.477 122.572 80.5964ZM159.846 69.3198C160.645 69.0887 161.467 68.9713 162.291 68.9713C166.225 68.9713 169.733 71.6006 170.824 75.3659L174.395 87.6921L164.423 90.5807C164.328 90.4447 164.22 90.3166 164.095 90.1971L146.411 73.2124L159.846 69.3198ZM78.0849 95.717C79.2306 93.6362 81.1074 92.1293 83.3698 91.4739L84.8301 91.0506C84.9242 91.1865 85.033 91.3157 85.1563 91.4341L102.841 108.42L80.8948 114.778L77.3237 102.451C76.6683 100.19 76.9392 97.7987 78.0849 95.717ZM81.6842 120.343H103.551L92.9909 138.634H81.6842V120.343ZM157.162 138.634L167.722 120.343H179.028V138.634H157.162Z" fill="url(#paint0_linear)" fill-opacity="0.8"/>
<path fill-rule="evenodd" clip-rule="evenodd" d="M147.543 164.696C147.543 163.808 147.069 162.987 146.3 162.543L124.463 149.936C123.694 149.492 122.746 149.492 121.977 149.936C121.208 150.379 120.734 151.2 120.734 152.088V177.304C120.734 178.191 121.208 179.012 121.977 179.455C122.362 179.678 122.791 179.789 123.22 179.789C123.649 179.789 124.078 179.678 124.463 179.455L146.3 166.849C147.069 166.405 147.543 165.584 147.543 164.696ZM125.706 172.999V156.393L140.086 164.696L125.706 172.999Z" fill="url(#paint1_linear)" fill-opacity="0.8"/>
<path fill-rule="evenodd" clip-rule="evenodd" d="M130.356 186.293C128.987 186.293 127.87 187.409 127.87 188.778C127.87 190.147 128.987 191.264 130.356 191.264C131.726 191.264 132.841 190.147 132.841 188.778C132.841 187.409 131.726 186.293 130.356 186.293Z" fill="url(#paint2_linear)" fill-opacity="0.8"/>
<circle cx="128" cy="128" r="125" stroke="url(#paint3_linear)" stroke-opacity="0.8" stroke-width="6"/>
<defs>
<linearGradient id="paint0_linear" x1="128" y1="64" x2="128" y2="191.264" gradientUnits="userSpaceOnUse">
<stop offset="0.00520833" stop-color="#EB5757"/>
<stop offset="1" stop-color="#D54F8B"/>
</linearGradient>
<linearGradient id="paint1_linear" x1="134.139" y1="149.603" x2="134.139" y2="179.789" gradientUnits="userSpaceOnUse">
<stop offset="0.00520833" stop-color="#EB5757"/>
<stop offset="1" stop-color="#D54F8B"/>
</linearGradient>
<linearGradient id="paint2_linear" x1="130.356" y1="186.293" x2="130.356" y2="191.264" gradientUnits="userSpaceOnUse">
<stop offset="0.00520833" stop-color="#EB5757"/>
<stop offset="1" stop-color="#D54F8B"/>
</linearGradient>
<linearGradient id="paint3_linear" x1="50.6802" y1="24.0406" x2="128" y2="256" gradientUnits="userSpaceOnUse">
<stop stop-color="#F4B33E"/>
<stop offset="1" stop-color="#DF5488"/>
</linearGradient>
</defs>
</svg>
